<mxfile host="app.diagrams.net" modified="2021-09-22T15:45:36.044Z" agent="5.0 (Windows)" etag="5XiPhZ3qBRjAEUekDrUv" version="15.1.4" type="github">
  <diagram id="Q3dzWEZGffisFMrJan4V" name="Page-1">
    <mxGraphModel dx="1422" dy="749" grid="0" gridSize="10" guides="1" tooltips="1" connect="1" arrows="1" fold="1" page="0" pageScale="1" pageWidth="1100" pageHeight="850" math="0" shadow="0">
      <root>
        <mxCell id="0" />
        <mxCell id="1" parent="0" />
        <mxCell id="KTEhq3X3tkaiahgWx3Sp-8" value="" style="ellipse;whiteSpace=wrap;html=1;aspect=fixed;" parent="1" vertex="1">
          <mxGeometry x="50" y="390" width="60" height="60" as="geometry" />
        </mxCell>
        <mxCell id="KTEhq3X3tkaiahgWx3Sp-13" value="" style="ellipse;whiteSpace=wrap;html=1;aspect=fixed;" parent="1" vertex="1">
          <mxGeometry x="50" y="470" width="60" height="60" as="geometry" />
        </mxCell>
        <mxCell id="KTEhq3X3tkaiahgWx3Sp-14" value="" style="ellipse;whiteSpace=wrap;html=1;aspect=fixed;" parent="1" vertex="1">
          <mxGeometry x="50" y="550" width="60" height="60" as="geometry" />
        </mxCell>
        <mxCell id="KTEhq3X3tkaiahgWx3Sp-15" value="" style="ellipse;whiteSpace=wrap;html=1;aspect=fixed;" parent="1" vertex="1">
          <mxGeometry x="50" y="650" width="60" height="60" as="geometry" />
        </mxCell>
        <mxCell id="KTEhq3X3tkaiahgWx3Sp-44" value="" style="ellipse;whiteSpace=wrap;html=1;aspect=fixed;" parent="1" vertex="1">
          <mxGeometry x="530" y="430" width="60" height="60" as="geometry" />
        </mxCell>
        <mxCell id="KTEhq3X3tkaiahgWx3Sp-45" value="" style="ellipse;whiteSpace=wrap;html=1;aspect=fixed;" parent="1" vertex="1">
          <mxGeometry x="530" y="510" width="60" height="60" as="geometry" />
        </mxCell>
        <mxCell id="KTEhq3X3tkaiahgWx3Sp-46" value="" style="ellipse;whiteSpace=wrap;html=1;aspect=fixed;" parent="1" vertex="1">
          <mxGeometry x="530" y="590" width="60" height="60" as="geometry" />
        </mxCell>
        <mxCell id="KTEhq3X3tkaiahgWx3Sp-48" value="" style="ellipse;whiteSpace=wrap;html=1;aspect=fixed;" parent="1" vertex="1">
          <mxGeometry x="530" y="110" width="60" height="60" as="geometry" />
        </mxCell>
        <mxCell id="KTEhq3X3tkaiahgWx3Sp-49" value="" style="ellipse;whiteSpace=wrap;html=1;aspect=fixed;" parent="1" vertex="1">
          <mxGeometry x="530" y="190" width="60" height="60" as="geometry" />
        </mxCell>
        <mxCell id="KTEhq3X3tkaiahgWx3Sp-50" value="" style="ellipse;whiteSpace=wrap;html=1;aspect=fixed;" parent="1" vertex="1">
          <mxGeometry x="530" y="270" width="60" height="60" as="geometry" />
        </mxCell>
        <mxCell id="KTEhq3X3tkaiahgWx3Sp-70" value="" style="ellipse;whiteSpace=wrap;html=1;aspect=fixed;" parent="1" vertex="1">
          <mxGeometry x="1010" y="330" width="60" height="60" as="geometry" />
        </mxCell>
        <mxCell id="KTEhq3X3tkaiahgWx3Sp-72" value="" style="edgeStyle=orthogonalEdgeStyle;endArrow=classic;html=1;exitX=0.5;exitY=0;exitDx=0;exitDy=0;rounded=1;strokeWidth=2;" parent="1" source="KTEhq3X3tkaiahgWx3Sp-73" edge="1">
          <mxGeometry width="50" height="50" relative="1" as="geometry">
            <mxPoint x="80" y="370" as="sourcePoint" />
            <mxPoint x="490" y="220" as="targetPoint" />
            <Array as="points">
              <mxPoint x="80" y="220" />
            </Array>
          </mxGeometry>
        </mxCell>
        <mxCell id="KTEhq3X3tkaiahgWx3Sp-73" value="" style="rounded=0;whiteSpace=wrap;html=1;gradientColor=none;fillColor=none;dashed=1;strokeWidth=3;" parent="1" vertex="1">
          <mxGeometry x="30" y="368" width="100" height="260" as="geometry" />
        </mxCell>
        <mxCell id="KTEhq3X3tkaiahgWx3Sp-74" value="" style="rounded=0;whiteSpace=wrap;html=1;gradientColor=none;fillColor=none;dashed=1;strokeWidth=3;" parent="1" vertex="1">
          <mxGeometry x="510" y="88" width="100" height="260" as="geometry" />
        </mxCell>
        <mxCell id="KTEhq3X3tkaiahgWx3Sp-243" value="" style="ellipse;whiteSpace=wrap;html=1;aspect=fixed;" parent="1" vertex="1">
          <mxGeometry x="417.5" y="415" width="45" height="45" as="geometry" />
        </mxCell>
        <mxCell id="KTEhq3X3tkaiahgWx3Sp-258" value="" style="ellipse;whiteSpace=wrap;html=1;aspect=fixed;" parent="1" vertex="1">
          <mxGeometry x="337.5" y="415" width="45" height="45" as="geometry" />
        </mxCell>
        <mxCell id="KTEhq3X3tkaiahgWx3Sp-259" value="" style="ellipse;whiteSpace=wrap;html=1;aspect=fixed;" parent="1" vertex="1">
          <mxGeometry x="257.5" y="415" width="45" height="45" as="geometry" />
        </mxCell>
        <mxCell id="KTEhq3X3tkaiahgWx3Sp-260" value="" style="ellipse;whiteSpace=wrap;html=1;aspect=fixed;" parent="1" vertex="1">
          <mxGeometry x="177.5" y="415" width="45" height="45" as="geometry" />
        </mxCell>
        <mxCell id="KTEhq3X3tkaiahgWx3Sp-261" value="" style="ellipse;whiteSpace=wrap;html=1;aspect=fixed;" parent="1" vertex="1">
          <mxGeometry x="417.5" y="465" width="45" height="45" as="geometry" />
        </mxCell>
        <mxCell id="KTEhq3X3tkaiahgWx3Sp-262" value="" style="ellipse;whiteSpace=wrap;html=1;aspect=fixed;" parent="1" vertex="1">
          <mxGeometry x="337.5" y="465" width="45" height="45" as="geometry" />
        </mxCell>
        <mxCell id="KTEhq3X3tkaiahgWx3Sp-263" value="" style="ellipse;whiteSpace=wrap;html=1;aspect=fixed;" parent="1" vertex="1">
          <mxGeometry x="257.5" y="465" width="45" height="45" as="geometry" />
        </mxCell>
        <mxCell id="KTEhq3X3tkaiahgWx3Sp-264" value="" style="ellipse;whiteSpace=wrap;html=1;aspect=fixed;" parent="1" vertex="1">
          <mxGeometry x="177.5" y="465" width="45" height="45" as="geometry" />
        </mxCell>
        <mxCell id="KTEhq3X3tkaiahgWx3Sp-265" value="" style="ellipse;whiteSpace=wrap;html=1;aspect=fixed;" parent="1" vertex="1">
          <mxGeometry x="417.5" y="620" width="45" height="45" as="geometry" />
        </mxCell>
        <mxCell id="KTEhq3X3tkaiahgWx3Sp-266" value="" style="ellipse;whiteSpace=wrap;html=1;aspect=fixed;" parent="1" vertex="1">
          <mxGeometry x="337.5" y="620" width="45" height="45" as="geometry" />
        </mxCell>
        <mxCell id="KTEhq3X3tkaiahgWx3Sp-267" value="" style="ellipse;whiteSpace=wrap;html=1;aspect=fixed;" parent="1" vertex="1">
          <mxGeometry x="257.5" y="620" width="45" height="45" as="geometry" />
        </mxCell>
        <mxCell id="KTEhq3X3tkaiahgWx3Sp-268" value="" style="ellipse;whiteSpace=wrap;html=1;aspect=fixed;" parent="1" vertex="1">
          <mxGeometry x="177.5" y="620" width="45" height="45" as="geometry" />
        </mxCell>
        <mxCell id="KTEhq3X3tkaiahgWx3Sp-269" value="" style="ellipse;whiteSpace=wrap;html=1;aspect=fixed;" parent="1" vertex="1">
          <mxGeometry x="417.5" y="570" width="45" height="45" as="geometry" />
        </mxCell>
        <mxCell id="KTEhq3X3tkaiahgWx3Sp-270" value="" style="ellipse;whiteSpace=wrap;html=1;aspect=fixed;" parent="1" vertex="1">
          <mxGeometry x="337.5" y="570" width="45" height="45" as="geometry" />
        </mxCell>
        <mxCell id="KTEhq3X3tkaiahgWx3Sp-271" value="" style="ellipse;whiteSpace=wrap;html=1;aspect=fixed;" parent="1" vertex="1">
          <mxGeometry x="257.5" y="570" width="45" height="45" as="geometry" />
        </mxCell>
        <mxCell id="KTEhq3X3tkaiahgWx3Sp-272" value="" style="ellipse;whiteSpace=wrap;html=1;aspect=fixed;" parent="1" vertex="1">
          <mxGeometry x="177.5" y="570" width="45" height="45" as="geometry" />
        </mxCell>
        <mxCell id="KTEhq3X3tkaiahgWx3Sp-274" value="" style="ellipse;whiteSpace=wrap;html=1;aspect=fixed;" parent="1" vertex="1">
          <mxGeometry x="897.5" y="235" width="45" height="45" as="geometry" />
        </mxCell>
        <mxCell id="KTEhq3X3tkaiahgWx3Sp-275" value="" style="ellipse;whiteSpace=wrap;html=1;aspect=fixed;" parent="1" vertex="1">
          <mxGeometry x="817.5" y="235" width="45" height="45" as="geometry" />
        </mxCell>
        <mxCell id="KTEhq3X3tkaiahgWx3Sp-276" value="" style="ellipse;whiteSpace=wrap;html=1;aspect=fixed;" parent="1" vertex="1">
          <mxGeometry x="737.5" y="235" width="45" height="45" as="geometry" />
        </mxCell>
        <mxCell id="KTEhq3X3tkaiahgWx3Sp-277" value="" style="ellipse;whiteSpace=wrap;html=1;aspect=fixed;" parent="1" vertex="1">
          <mxGeometry x="657.5" y="235" width="45" height="45" as="geometry" />
        </mxCell>
        <mxCell id="KTEhq3X3tkaiahgWx3Sp-278" value="" style="ellipse;whiteSpace=wrap;html=1;aspect=fixed;" parent="1" vertex="1">
          <mxGeometry x="897.5" y="285" width="45" height="45" as="geometry" />
        </mxCell>
        <mxCell id="KTEhq3X3tkaiahgWx3Sp-279" value="" style="ellipse;whiteSpace=wrap;html=1;aspect=fixed;" parent="1" vertex="1">
          <mxGeometry x="817.5" y="285" width="45" height="45" as="geometry" />
        </mxCell>
        <mxCell id="KTEhq3X3tkaiahgWx3Sp-280" value="" style="ellipse;whiteSpace=wrap;html=1;aspect=fixed;" parent="1" vertex="1">
          <mxGeometry x="737.5" y="285" width="45" height="45" as="geometry" />
        </mxCell>
        <mxCell id="KTEhq3X3tkaiahgWx3Sp-281" value="" style="ellipse;whiteSpace=wrap;html=1;aspect=fixed;" parent="1" vertex="1">
          <mxGeometry x="657.5" y="285" width="45" height="45" as="geometry" />
        </mxCell>
        <mxCell id="KTEhq3X3tkaiahgWx3Sp-282" value="" style="ellipse;whiteSpace=wrap;html=1;aspect=fixed;" parent="1" vertex="1">
          <mxGeometry x="897.5" y="440" width="45" height="45" as="geometry" />
        </mxCell>
        <mxCell id="KTEhq3X3tkaiahgWx3Sp-283" value="" style="ellipse;whiteSpace=wrap;html=1;aspect=fixed;" parent="1" vertex="1">
          <mxGeometry x="817.5" y="440" width="45" height="45" as="geometry" />
        </mxCell>
        <mxCell id="KTEhq3X3tkaiahgWx3Sp-284" value="" style="ellipse;whiteSpace=wrap;html=1;aspect=fixed;" parent="1" vertex="1">
          <mxGeometry x="737.5" y="440" width="45" height="45" as="geometry" />
        </mxCell>
        <mxCell id="KTEhq3X3tkaiahgWx3Sp-285" value="" style="ellipse;whiteSpace=wrap;html=1;aspect=fixed;" parent="1" vertex="1">
          <mxGeometry x="657.5" y="440" width="45" height="45" as="geometry" />
        </mxCell>
        <mxCell id="KTEhq3X3tkaiahgWx3Sp-286" value="" style="ellipse;whiteSpace=wrap;html=1;aspect=fixed;" parent="1" vertex="1">
          <mxGeometry x="897.5" y="390" width="45" height="45" as="geometry" />
        </mxCell>
        <mxCell id="KTEhq3X3tkaiahgWx3Sp-287" value="" style="ellipse;whiteSpace=wrap;html=1;aspect=fixed;" parent="1" vertex="1">
          <mxGeometry x="817.5" y="390" width="45" height="45" as="geometry" />
        </mxCell>
        <mxCell id="KTEhq3X3tkaiahgWx3Sp-288" value="" style="ellipse;whiteSpace=wrap;html=1;aspect=fixed;" parent="1" vertex="1">
          <mxGeometry x="737.5" y="390" width="45" height="45" as="geometry" />
        </mxCell>
        <mxCell id="KTEhq3X3tkaiahgWx3Sp-289" value="" style="ellipse;whiteSpace=wrap;html=1;aspect=fixed;" parent="1" vertex="1">
          <mxGeometry x="657.5" y="390" width="45" height="45" as="geometry" />
        </mxCell>
        <mxCell id="KTEhq3X3tkaiahgWx3Sp-291" value="" style="rounded=0;whiteSpace=wrap;html=1;gradientColor=none;fillColor=none;strokeWidth=2;strokeColor=#0000FF;dashed=1;" parent="1" vertex="1">
          <mxGeometry x="496" y="73" width="605" height="590" as="geometry" />
        </mxCell>
        <mxCell id="KTEhq3X3tkaiahgWx3Sp-295" value="" style="endArrow=none;html=1;exitX=1;exitY=0.5;exitDx=0;exitDy=0;entryX=0;entryY=0.5;entryDx=0;entryDy=0;strokeColor=#331A00;" parent="1" source="KTEhq3X3tkaiahgWx3Sp-8" target="KTEhq3X3tkaiahgWx3Sp-260" edge="1">
          <mxGeometry width="50" height="50" relative="1" as="geometry">
            <mxPoint x="190" y="360" as="sourcePoint" />
            <mxPoint x="240" y="470" as="targetPoint" />
          </mxGeometry>
        </mxCell>
        <mxCell id="KTEhq3X3tkaiahgWx3Sp-296" value="" style="endArrow=none;html=1;entryX=0;entryY=0.5;entryDx=0;entryDy=0;strokeColor=#331A00;" parent="1" target="KTEhq3X3tkaiahgWx3Sp-264" edge="1">
          <mxGeometry width="50" height="50" relative="1" as="geometry">
            <mxPoint x="110" y="420" as="sourcePoint" />
            <mxPoint x="187.5000000000016" y="447.5" as="targetPoint" />
          </mxGeometry>
        </mxCell>
        <mxCell id="KTEhq3X3tkaiahgWx3Sp-297" value="" style="endArrow=none;html=1;entryX=0;entryY=0.5;entryDx=0;entryDy=0;strokeColor=#331A00;" parent="1" target="KTEhq3X3tkaiahgWx3Sp-272" edge="1">
          <mxGeometry width="50" height="50" relative="1" as="geometry">
            <mxPoint x="110" y="420" as="sourcePoint" />
            <mxPoint x="187.5000000000016" y="497.5" as="targetPoint" />
          </mxGeometry>
        </mxCell>
        <mxCell id="KTEhq3X3tkaiahgWx3Sp-298" value="" style="endArrow=none;html=1;entryX=0;entryY=0.5;entryDx=0;entryDy=0;strokeColor=#331A00;" parent="1" target="KTEhq3X3tkaiahgWx3Sp-268" edge="1">
          <mxGeometry width="50" height="50" relative="1" as="geometry">
            <mxPoint x="110" y="420" as="sourcePoint" />
            <mxPoint x="187.5000000000016" y="602.5" as="targetPoint" />
          </mxGeometry>
        </mxCell>
        <mxCell id="KTEhq3X3tkaiahgWx3Sp-300" value="" style="endArrow=none;html=1;entryX=0;entryY=0.5;entryDx=0;entryDy=0;exitX=1;exitY=0.5;exitDx=0;exitDy=0;strokeColor=#331A00;" parent="1" source="KTEhq3X3tkaiahgWx3Sp-13" target="KTEhq3X3tkaiahgWx3Sp-264" edge="1">
          <mxGeometry width="50" height="50" relative="1" as="geometry">
            <mxPoint x="120" y="510" as="sourcePoint" />
            <mxPoint x="187.5000000000016" y="447.5" as="targetPoint" />
          </mxGeometry>
        </mxCell>
        <mxCell id="KTEhq3X3tkaiahgWx3Sp-301" value="" style="endArrow=none;html=1;entryX=0;entryY=0.5;entryDx=0;entryDy=0;exitX=1;exitY=0.5;exitDx=0;exitDy=0;strokeColor=#331A00;" parent="1" source="KTEhq3X3tkaiahgWx3Sp-13" target="KTEhq3X3tkaiahgWx3Sp-272" edge="1">
          <mxGeometry width="50" height="50" relative="1" as="geometry">
            <mxPoint x="120" y="510" as="sourcePoint" />
            <mxPoint x="187.5000000000016" y="497.5" as="targetPoint" />
          </mxGeometry>
        </mxCell>
        <mxCell id="KTEhq3X3tkaiahgWx3Sp-302" value="" style="endArrow=none;html=1;entryX=0;entryY=0.5;entryDx=0;entryDy=0;exitX=1;exitY=0.5;exitDx=0;exitDy=0;strokeColor=#331A00;" parent="1" source="KTEhq3X3tkaiahgWx3Sp-13" target="KTEhq3X3tkaiahgWx3Sp-268" edge="1">
          <mxGeometry width="50" height="50" relative="1" as="geometry">
            <mxPoint x="120" y="510" as="sourcePoint" />
            <mxPoint x="187.5000000000016" y="602.5" as="targetPoint" />
          </mxGeometry>
        </mxCell>
        <mxCell id="KTEhq3X3tkaiahgWx3Sp-303" value="" style="endArrow=none;html=1;entryX=0;entryY=0.5;entryDx=0;entryDy=0;exitX=1;exitY=0.5;exitDx=0;exitDy=0;strokeColor=#331A00;" parent="1" source="KTEhq3X3tkaiahgWx3Sp-14" target="KTEhq3X3tkaiahgWx3Sp-260" edge="1">
          <mxGeometry width="50" height="50" relative="1" as="geometry">
            <mxPoint x="120" y="510" as="sourcePoint" />
            <mxPoint x="187.5000000000016" y="447.5" as="targetPoint" />
          </mxGeometry>
        </mxCell>
        <mxCell id="KTEhq3X3tkaiahgWx3Sp-304" value="" style="endArrow=none;html=1;entryX=0;entryY=0.5;entryDx=0;entryDy=0;strokeColor=#331A00;" parent="1" target="KTEhq3X3tkaiahgWx3Sp-264" edge="1">
          <mxGeometry width="50" height="50" relative="1" as="geometry">
            <mxPoint x="110" y="580" as="sourcePoint" />
            <mxPoint x="187.5000000000016" y="447.5" as="targetPoint" />
          </mxGeometry>
        </mxCell>
        <mxCell id="KTEhq3X3tkaiahgWx3Sp-305" value="" style="endArrow=none;html=1;entryX=0;entryY=0.5;entryDx=0;entryDy=0;strokeColor=#331A00;" parent="1" target="KTEhq3X3tkaiahgWx3Sp-272" edge="1">
          <mxGeometry width="50" height="50" relative="1" as="geometry">
            <mxPoint x="110" y="580" as="sourcePoint" />
            <mxPoint x="187.5000000000016" y="497.5" as="targetPoint" />
          </mxGeometry>
        </mxCell>
        <mxCell id="KTEhq3X3tkaiahgWx3Sp-306" value="" style="endArrow=none;html=1;entryX=0;entryY=0.5;entryDx=0;entryDy=0;exitX=1;exitY=0.5;exitDx=0;exitDy=0;strokeColor=#331A00;" parent="1" source="KTEhq3X3tkaiahgWx3Sp-14" target="KTEhq3X3tkaiahgWx3Sp-268" edge="1">
          <mxGeometry width="50" height="50" relative="1" as="geometry">
            <mxPoint x="120" y="590" as="sourcePoint" />
            <mxPoint x="187.5000000000016" y="602.5" as="targetPoint" />
          </mxGeometry>
        </mxCell>
        <mxCell id="KTEhq3X3tkaiahgWx3Sp-307" value="" style="endArrow=none;html=1;entryX=0;entryY=0.5;entryDx=0;entryDy=0;exitX=1;exitY=0.5;exitDx=0;exitDy=0;strokeColor=#331A00;" parent="1" source="KTEhq3X3tkaiahgWx3Sp-15" target="KTEhq3X3tkaiahgWx3Sp-260" edge="1">
          <mxGeometry width="50" height="50" relative="1" as="geometry">
            <mxPoint x="120" y="590" as="sourcePoint" />
            <mxPoint x="187.5000000000016" y="447.5" as="targetPoint" />
          </mxGeometry>
        </mxCell>
        <mxCell id="KTEhq3X3tkaiahgWx3Sp-308" value="" style="endArrow=none;html=1;entryX=0;entryY=0.5;entryDx=0;entryDy=0;strokeColor=#331A00;" parent="1" target="KTEhq3X3tkaiahgWx3Sp-264" edge="1">
          <mxGeometry width="50" height="50" relative="1" as="geometry">
            <mxPoint x="110" y="680" as="sourcePoint" />
            <mxPoint x="187.5000000000016" y="447.5" as="targetPoint" />
          </mxGeometry>
        </mxCell>
        <mxCell id="KTEhq3X3tkaiahgWx3Sp-309" value="" style="endArrow=none;html=1;entryX=0;entryY=0.5;entryDx=0;entryDy=0;exitX=1;exitY=0.5;exitDx=0;exitDy=0;strokeColor=#331A00;" parent="1" source="KTEhq3X3tkaiahgWx3Sp-15" target="KTEhq3X3tkaiahgWx3Sp-272" edge="1">
          <mxGeometry width="50" height="50" relative="1" as="geometry">
            <mxPoint x="120" y="690" as="sourcePoint" />
            <mxPoint x="187.5000000000016" y="497.5" as="targetPoint" />
          </mxGeometry>
        </mxCell>
        <mxCell id="KTEhq3X3tkaiahgWx3Sp-310" value="" style="endArrow=none;html=1;entryX=0;entryY=0.5;entryDx=0;entryDy=0;strokeColor=#331A00;" parent="1" target="KTEhq3X3tkaiahgWx3Sp-268" edge="1">
          <mxGeometry width="50" height="50" relative="1" as="geometry">
            <mxPoint x="110" y="680" as="sourcePoint" />
            <mxPoint x="187.5000000000016" y="602.5" as="targetPoint" />
          </mxGeometry>
        </mxCell>
        <mxCell id="KTEhq3X3tkaiahgWx3Sp-311" value="" style="endArrow=none;html=1;entryX=0;entryY=0.5;entryDx=0;entryDy=0;exitX=1;exitY=0.5;exitDx=0;exitDy=0;strokeColor=#331A00;" parent="1" source="KTEhq3X3tkaiahgWx3Sp-243" target="KTEhq3X3tkaiahgWx3Sp-44" edge="1">
          <mxGeometry width="50" height="50" relative="1" as="geometry">
            <mxPoint x="500" y="430" as="sourcePoint" />
            <mxPoint x="530" y="458" as="targetPoint" />
          </mxGeometry>
        </mxCell>
        <mxCell id="KTEhq3X3tkaiahgWx3Sp-312" value="" style="endArrow=none;html=1;entryX=0;entryY=0.5;entryDx=0;entryDy=0;exitX=1;exitY=0.5;exitDx=0;exitDy=0;strokeColor=#331A00;" parent="1" source="KTEhq3X3tkaiahgWx3Sp-243" target="KTEhq3X3tkaiahgWx3Sp-45" edge="1">
          <mxGeometry width="50" height="50" relative="1" as="geometry">
            <mxPoint x="472.4999999999998" y="447.5" as="sourcePoint" />
            <mxPoint x="540" y="470" as="targetPoint" />
          </mxGeometry>
        </mxCell>
        <mxCell id="KTEhq3X3tkaiahgWx3Sp-313" value="" style="endArrow=none;html=1;entryX=0;entryY=0.5;entryDx=0;entryDy=0;exitX=1;exitY=0.5;exitDx=0;exitDy=0;strokeColor=#331A00;" parent="1" source="KTEhq3X3tkaiahgWx3Sp-243" target="KTEhq3X3tkaiahgWx3Sp-46" edge="1">
          <mxGeometry width="50" height="50" relative="1" as="geometry">
            <mxPoint x="472.4999999999998" y="447.5" as="sourcePoint" />
            <mxPoint x="540" y="550" as="targetPoint" />
          </mxGeometry>
        </mxCell>
        <mxCell id="KTEhq3X3tkaiahgWx3Sp-314" value="" style="endArrow=none;html=1;entryX=0;entryY=0.5;entryDx=0;entryDy=0;exitX=1;exitY=0.5;exitDx=0;exitDy=0;strokeColor=#331A00;" parent="1" source="KTEhq3X3tkaiahgWx3Sp-261" target="KTEhq3X3tkaiahgWx3Sp-44" edge="1">
          <mxGeometry width="50" height="50" relative="1" as="geometry">
            <mxPoint x="472.5000000000018" y="447.5" as="sourcePoint" />
            <mxPoint x="540" y="470" as="targetPoint" />
          </mxGeometry>
        </mxCell>
        <mxCell id="KTEhq3X3tkaiahgWx3Sp-315" value="" style="endArrow=none;html=1;entryX=0;entryY=0.5;entryDx=0;entryDy=0;exitX=1;exitY=0.5;exitDx=0;exitDy=0;strokeColor=#331A00;" parent="1" source="KTEhq3X3tkaiahgWx3Sp-269" target="KTEhq3X3tkaiahgWx3Sp-44" edge="1">
          <mxGeometry width="50" height="50" relative="1" as="geometry">
            <mxPoint x="472.5000000000018" y="497.5" as="sourcePoint" />
            <mxPoint x="540" y="470" as="targetPoint" />
          </mxGeometry>
        </mxCell>
        <mxCell id="KTEhq3X3tkaiahgWx3Sp-316" value="" style="endArrow=none;html=1;entryX=0;entryY=0.5;entryDx=0;entryDy=0;exitX=1;exitY=0.5;exitDx=0;exitDy=0;strokeColor=#331A00;" parent="1" source="KTEhq3X3tkaiahgWx3Sp-265" target="KTEhq3X3tkaiahgWx3Sp-44" edge="1">
          <mxGeometry width="50" height="50" relative="1" as="geometry">
            <mxPoint x="472.5000000000018" y="602.5" as="sourcePoint" />
            <mxPoint x="540" y="470" as="targetPoint" />
          </mxGeometry>
        </mxCell>
        <mxCell id="KTEhq3X3tkaiahgWx3Sp-317" value="" style="endArrow=none;html=1;entryX=0;entryY=0.5;entryDx=0;entryDy=0;exitX=1;exitY=0.5;exitDx=0;exitDy=0;strokeColor=#331A00;" parent="1" source="KTEhq3X3tkaiahgWx3Sp-261" target="KTEhq3X3tkaiahgWx3Sp-45" edge="1">
          <mxGeometry width="50" height="50" relative="1" as="geometry">
            <mxPoint x="472.5000000000018" y="497.5" as="sourcePoint" />
            <mxPoint x="540" y="470" as="targetPoint" />
          </mxGeometry>
        </mxCell>
        <mxCell id="KTEhq3X3tkaiahgWx3Sp-318" value="" style="endArrow=none;html=1;entryX=0;entryY=0.5;entryDx=0;entryDy=0;exitX=1;exitY=0.5;exitDx=0;exitDy=0;strokeColor=#331A00;" parent="1" source="KTEhq3X3tkaiahgWx3Sp-261" target="KTEhq3X3tkaiahgWx3Sp-46" edge="1">
          <mxGeometry width="50" height="50" relative="1" as="geometry">
            <mxPoint x="472.5000000000018" y="497.5" as="sourcePoint" />
            <mxPoint x="540" y="550" as="targetPoint" />
          </mxGeometry>
        </mxCell>
        <mxCell id="KTEhq3X3tkaiahgWx3Sp-319" value="" style="endArrow=none;html=1;entryX=0;entryY=0.5;entryDx=0;entryDy=0;exitX=1;exitY=0.5;exitDx=0;exitDy=0;strokeColor=#331A00;" parent="1" source="KTEhq3X3tkaiahgWx3Sp-269" target="KTEhq3X3tkaiahgWx3Sp-45" edge="1">
          <mxGeometry width="50" height="50" relative="1" as="geometry">
            <mxPoint x="472.5000000000018" y="602.5" as="sourcePoint" />
            <mxPoint x="540" y="470" as="targetPoint" />
          </mxGeometry>
        </mxCell>
        <mxCell id="KTEhq3X3tkaiahgWx3Sp-320" value="" style="endArrow=none;html=1;entryX=0;entryY=0.5;entryDx=0;entryDy=0;exitX=1;exitY=0.5;exitDx=0;exitDy=0;strokeColor=#331A00;" parent="1" source="KTEhq3X3tkaiahgWx3Sp-269" target="KTEhq3X3tkaiahgWx3Sp-46" edge="1">
          <mxGeometry width="50" height="50" relative="1" as="geometry">
            <mxPoint x="472.5000000000018" y="602.5" as="sourcePoint" />
            <mxPoint x="540" y="550" as="targetPoint" />
          </mxGeometry>
        </mxCell>
        <mxCell id="KTEhq3X3tkaiahgWx3Sp-321" value="" style="endArrow=none;html=1;entryX=0;entryY=0.5;entryDx=0;entryDy=0;exitX=1;exitY=0.5;exitDx=0;exitDy=0;strokeColor=#331A00;" parent="1" source="KTEhq3X3tkaiahgWx3Sp-265" target="KTEhq3X3tkaiahgWx3Sp-45" edge="1">
          <mxGeometry width="50" height="50" relative="1" as="geometry">
            <mxPoint x="460" y="640" as="sourcePoint" />
            <mxPoint x="540" y="470" as="targetPoint" />
          </mxGeometry>
        </mxCell>
        <mxCell id="KTEhq3X3tkaiahgWx3Sp-322" value="" style="endArrow=none;html=1;exitX=1;exitY=0.5;exitDx=0;exitDy=0;strokeColor=#331A00;" parent="1" source="KTEhq3X3tkaiahgWx3Sp-265" edge="1">
          <mxGeometry width="50" height="50" relative="1" as="geometry">
            <mxPoint x="472.5000000000018" y="652.5" as="sourcePoint" />
            <mxPoint x="530" y="620" as="targetPoint" />
          </mxGeometry>
        </mxCell>
        <mxCell id="KTEhq3X3tkaiahgWx3Sp-323" value="" style="endArrow=none;html=1;entryX=0;entryY=0.5;entryDx=0;entryDy=0;exitX=1;exitY=0.5;exitDx=0;exitDy=0;strokeColor=#331A00;" parent="1" source="KTEhq3X3tkaiahgWx3Sp-48" target="KTEhq3X3tkaiahgWx3Sp-277" edge="1">
          <mxGeometry width="50" height="50" relative="1" as="geometry">
            <mxPoint x="589.9999999999991" y="262.5" as="sourcePoint" />
            <mxPoint x="657.5" y="285" as="targetPoint" />
          </mxGeometry>
        </mxCell>
        <mxCell id="KTEhq3X3tkaiahgWx3Sp-325" value="" style="endArrow=none;html=1;entryX=0;entryY=0.5;entryDx=0;entryDy=0;exitX=1;exitY=0.5;exitDx=0;exitDy=0;strokeColor=#331A00;" parent="1" source="KTEhq3X3tkaiahgWx3Sp-48" target="KTEhq3X3tkaiahgWx3Sp-281" edge="1">
          <mxGeometry width="50" height="50" relative="1" as="geometry">
            <mxPoint x="600" y="150" as="sourcePoint" />
            <mxPoint x="667.5" y="267.5" as="targetPoint" />
          </mxGeometry>
        </mxCell>
        <mxCell id="KTEhq3X3tkaiahgWx3Sp-326" value="" style="endArrow=none;html=1;entryX=0;entryY=0.5;entryDx=0;entryDy=0;exitX=1;exitY=0.5;exitDx=0;exitDy=0;strokeColor=#331A00;" parent="1" source="KTEhq3X3tkaiahgWx3Sp-48" target="KTEhq3X3tkaiahgWx3Sp-289" edge="1">
          <mxGeometry width="50" height="50" relative="1" as="geometry">
            <mxPoint x="600" y="150" as="sourcePoint" />
            <mxPoint x="667.5" y="317.5" as="targetPoint" />
          </mxGeometry>
        </mxCell>
        <mxCell id="KTEhq3X3tkaiahgWx3Sp-327" value="" style="endArrow=none;html=1;entryX=0;entryY=0.5;entryDx=0;entryDy=0;exitX=1;exitY=0.5;exitDx=0;exitDy=0;strokeColor=#331A00;" parent="1" source="KTEhq3X3tkaiahgWx3Sp-48" target="KTEhq3X3tkaiahgWx3Sp-285" edge="1">
          <mxGeometry width="50" height="50" relative="1" as="geometry">
            <mxPoint x="600" y="150" as="sourcePoint" />
            <mxPoint x="667.5" y="422.5" as="targetPoint" />
          </mxGeometry>
        </mxCell>
        <mxCell id="KTEhq3X3tkaiahgWx3Sp-328" value="" style="endArrow=none;html=1;entryX=0;entryY=0.5;entryDx=0;entryDy=0;exitX=1;exitY=0.5;exitDx=0;exitDy=0;strokeColor=#331A00;" parent="1" source="KTEhq3X3tkaiahgWx3Sp-49" target="KTEhq3X3tkaiahgWx3Sp-277" edge="1">
          <mxGeometry width="50" height="50" relative="1" as="geometry">
            <mxPoint x="600" y="150" as="sourcePoint" />
            <mxPoint x="667.5" y="267.5" as="targetPoint" />
          </mxGeometry>
        </mxCell>
        <mxCell id="KTEhq3X3tkaiahgWx3Sp-329" value="" style="endArrow=none;html=1;entryX=0;entryY=0.5;entryDx=0;entryDy=0;exitX=1;exitY=0.5;exitDx=0;exitDy=0;strokeColor=#331A00;" parent="1" source="KTEhq3X3tkaiahgWx3Sp-49" target="KTEhq3X3tkaiahgWx3Sp-281" edge="1">
          <mxGeometry width="50" height="50" relative="1" as="geometry">
            <mxPoint x="600" y="230" as="sourcePoint" />
            <mxPoint x="667.5" y="267.5" as="targetPoint" />
          </mxGeometry>
        </mxCell>
        <mxCell id="KTEhq3X3tkaiahgWx3Sp-330" value="" style="endArrow=none;html=1;entryX=0;entryY=0.5;entryDx=0;entryDy=0;exitX=1;exitY=0.5;exitDx=0;exitDy=0;strokeColor=#331A00;" parent="1" source="KTEhq3X3tkaiahgWx3Sp-49" target="KTEhq3X3tkaiahgWx3Sp-289" edge="1">
          <mxGeometry width="50" height="50" relative="1" as="geometry">
            <mxPoint x="600" y="230" as="sourcePoint" />
            <mxPoint x="667.5" y="317.5" as="targetPoint" />
          </mxGeometry>
        </mxCell>
        <mxCell id="KTEhq3X3tkaiahgWx3Sp-331" value="" style="endArrow=none;html=1;entryX=0;entryY=0.5;entryDx=0;entryDy=0;exitX=1;exitY=0.5;exitDx=0;exitDy=0;strokeColor=#331A00;" parent="1" source="KTEhq3X3tkaiahgWx3Sp-49" target="KTEhq3X3tkaiahgWx3Sp-285" edge="1">
          <mxGeometry width="50" height="50" relative="1" as="geometry">
            <mxPoint x="600" y="230" as="sourcePoint" />
            <mxPoint x="667.5" y="422.5" as="targetPoint" />
          </mxGeometry>
        </mxCell>
        <mxCell id="KTEhq3X3tkaiahgWx3Sp-332" value="" style="endArrow=none;html=1;entryX=0;entryY=0.5;entryDx=0;entryDy=0;exitX=1;exitY=0.5;exitDx=0;exitDy=0;strokeColor=#331A00;" parent="1" source="KTEhq3X3tkaiahgWx3Sp-50" target="KTEhq3X3tkaiahgWx3Sp-277" edge="1">
          <mxGeometry width="50" height="50" relative="1" as="geometry">
            <mxPoint x="600" y="150" as="sourcePoint" />
            <mxPoint x="667.5000000000005" y="267.5" as="targetPoint" />
          </mxGeometry>
        </mxCell>
        <mxCell id="KTEhq3X3tkaiahgWx3Sp-333" value="" style="endArrow=none;html=1;entryX=0;entryY=0.5;entryDx=0;entryDy=0;exitX=1;exitY=0.5;exitDx=0;exitDy=0;strokeColor=#331A00;" parent="1" source="KTEhq3X3tkaiahgWx3Sp-50" target="KTEhq3X3tkaiahgWx3Sp-281" edge="1">
          <mxGeometry width="50" height="50" relative="1" as="geometry">
            <mxPoint x="600" y="310" as="sourcePoint" />
            <mxPoint x="667.5000000000005" y="267.5" as="targetPoint" />
          </mxGeometry>
        </mxCell>
        <mxCell id="KTEhq3X3tkaiahgWx3Sp-334" value="" style="endArrow=none;html=1;entryX=0;entryY=0.5;entryDx=0;entryDy=0;exitX=1;exitY=0.5;exitDx=0;exitDy=0;strokeColor=#331A00;" parent="1" source="KTEhq3X3tkaiahgWx3Sp-50" target="KTEhq3X3tkaiahgWx3Sp-289" edge="1">
          <mxGeometry width="50" height="50" relative="1" as="geometry">
            <mxPoint x="600" y="310" as="sourcePoint" />
            <mxPoint x="667.5000000000005" y="317.5" as="targetPoint" />
          </mxGeometry>
        </mxCell>
        <mxCell id="KTEhq3X3tkaiahgWx3Sp-335" value="" style="endArrow=none;html=1;entryX=0;entryY=0.5;entryDx=0;entryDy=0;exitX=1;exitY=0.5;exitDx=0;exitDy=0;strokeColor=#331A00;" parent="1" source="KTEhq3X3tkaiahgWx3Sp-50" target="KTEhq3X3tkaiahgWx3Sp-285" edge="1">
          <mxGeometry width="50" height="50" relative="1" as="geometry">
            <mxPoint x="600" y="310" as="sourcePoint" />
            <mxPoint x="667.5000000000005" y="422.5" as="targetPoint" />
          </mxGeometry>
        </mxCell>
        <mxCell id="KTEhq3X3tkaiahgWx3Sp-336" value="" style="endArrow=none;html=1;entryX=0;entryY=0.5;entryDx=0;entryDy=0;exitX=1;exitY=0.5;exitDx=0;exitDy=0;strokeColor=#331A00;" parent="1" source="KTEhq3X3tkaiahgWx3Sp-44" target="KTEhq3X3tkaiahgWx3Sp-277" edge="1">
          <mxGeometry width="50" height="50" relative="1" as="geometry">
            <mxPoint x="600" y="310" as="sourcePoint" />
            <mxPoint x="667.5000000000005" y="267.5" as="targetPoint" />
          </mxGeometry>
        </mxCell>
        <mxCell id="KTEhq3X3tkaiahgWx3Sp-337" value="" style="endArrow=none;html=1;entryX=0;entryY=0.5;entryDx=0;entryDy=0;strokeColor=#331A00;" parent="1" target="KTEhq3X3tkaiahgWx3Sp-281" edge="1">
          <mxGeometry width="50" height="50" relative="1" as="geometry">
            <mxPoint x="590" y="460" as="sourcePoint" />
            <mxPoint x="667.5000000000005" y="267.5" as="targetPoint" />
          </mxGeometry>
        </mxCell>
        <mxCell id="KTEhq3X3tkaiahgWx3Sp-338" value="" style="endArrow=none;html=1;entryX=0;entryY=0.5;entryDx=0;entryDy=0;exitX=1;exitY=0.5;exitDx=0;exitDy=0;strokeColor=#331A00;" parent="1" source="KTEhq3X3tkaiahgWx3Sp-44" target="KTEhq3X3tkaiahgWx3Sp-289" edge="1">
          <mxGeometry width="50" height="50" relative="1" as="geometry">
            <mxPoint x="600" y="470" as="sourcePoint" />
            <mxPoint x="667.4999999999982" y="317.5" as="targetPoint" />
          </mxGeometry>
        </mxCell>
        <mxCell id="KTEhq3X3tkaiahgWx3Sp-339" value="" style="endArrow=none;html=1;entryX=0;entryY=0.5;entryDx=0;entryDy=0;exitX=1;exitY=0.5;exitDx=0;exitDy=0;strokeColor=#331A00;" parent="1" source="KTEhq3X3tkaiahgWx3Sp-44" target="KTEhq3X3tkaiahgWx3Sp-285" edge="1">
          <mxGeometry width="50" height="50" relative="1" as="geometry">
            <mxPoint x="600" y="470" as="sourcePoint" />
            <mxPoint x="667.5000000000005" y="422.5" as="targetPoint" />
          </mxGeometry>
        </mxCell>
        <mxCell id="KTEhq3X3tkaiahgWx3Sp-340" value="" style="endArrow=none;html=1;entryX=0;entryY=0.5;entryDx=0;entryDy=0;exitX=1;exitY=0.5;exitDx=0;exitDy=0;strokeColor=#331A00;" parent="1" source="KTEhq3X3tkaiahgWx3Sp-45" target="KTEhq3X3tkaiahgWx3Sp-277" edge="1">
          <mxGeometry width="50" height="50" relative="1" as="geometry">
            <mxPoint x="600" y="470" as="sourcePoint" />
            <mxPoint x="667.5" y="267.5" as="targetPoint" />
          </mxGeometry>
        </mxCell>
        <mxCell id="KTEhq3X3tkaiahgWx3Sp-341" value="" style="endArrow=none;html=1;entryX=0;entryY=0.5;entryDx=0;entryDy=0;exitX=1;exitY=0.5;exitDx=0;exitDy=0;strokeColor=#331A00;" parent="1" source="KTEhq3X3tkaiahgWx3Sp-45" target="KTEhq3X3tkaiahgWx3Sp-281" edge="1">
          <mxGeometry width="50" height="50" relative="1" as="geometry">
            <mxPoint x="600" y="550" as="sourcePoint" />
            <mxPoint x="667.5" y="267.5" as="targetPoint" />
          </mxGeometry>
        </mxCell>
        <mxCell id="KTEhq3X3tkaiahgWx3Sp-342" value="" style="endArrow=none;html=1;entryX=0;entryY=0.5;entryDx=0;entryDy=0;exitX=1;exitY=0.5;exitDx=0;exitDy=0;strokeColor=#331A00;" parent="1" source="KTEhq3X3tkaiahgWx3Sp-45" target="KTEhq3X3tkaiahgWx3Sp-289" edge="1">
          <mxGeometry width="50" height="50" relative="1" as="geometry">
            <mxPoint x="600" y="550" as="sourcePoint" />
            <mxPoint x="667.5" y="317.5" as="targetPoint" />
          </mxGeometry>
        </mxCell>
        <mxCell id="KTEhq3X3tkaiahgWx3Sp-343" value="" style="endArrow=none;html=1;entryX=0;entryY=0.5;entryDx=0;entryDy=0;exitX=1;exitY=0.5;exitDx=0;exitDy=0;strokeColor=#331A00;" parent="1" source="KTEhq3X3tkaiahgWx3Sp-45" target="KTEhq3X3tkaiahgWx3Sp-285" edge="1">
          <mxGeometry width="50" height="50" relative="1" as="geometry">
            <mxPoint x="600" y="550" as="sourcePoint" />
            <mxPoint x="667.5" y="422.5" as="targetPoint" />
          </mxGeometry>
        </mxCell>
        <mxCell id="KTEhq3X3tkaiahgWx3Sp-344" value="" style="endArrow=none;html=1;entryX=0;entryY=0.5;entryDx=0;entryDy=0;exitX=1;exitY=0.5;exitDx=0;exitDy=0;strokeColor=#331A00;" parent="1" source="KTEhq3X3tkaiahgWx3Sp-46" target="KTEhq3X3tkaiahgWx3Sp-277" edge="1">
          <mxGeometry width="50" height="50" relative="1" as="geometry">
            <mxPoint x="600" y="550" as="sourcePoint" />
            <mxPoint x="667.5" y="267.5" as="targetPoint" />
          </mxGeometry>
        </mxCell>
        <mxCell id="KTEhq3X3tkaiahgWx3Sp-345" value="" style="endArrow=none;html=1;exitX=1;exitY=0.5;exitDx=0;exitDy=0;entryX=0;entryY=0.5;entryDx=0;entryDy=0;strokeColor=#331A00;" parent="1" source="KTEhq3X3tkaiahgWx3Sp-46" target="KTEhq3X3tkaiahgWx3Sp-281" edge="1">
          <mxGeometry width="50" height="50" relative="1" as="geometry">
            <mxPoint x="600" y="630" as="sourcePoint" />
            <mxPoint x="660" y="310" as="targetPoint" />
          </mxGeometry>
        </mxCell>
        <mxCell id="KTEhq3X3tkaiahgWx3Sp-346" value="" style="endArrow=none;html=1;exitX=1;exitY=0.5;exitDx=0;exitDy=0;entryX=0;entryY=0.5;entryDx=0;entryDy=0;strokeColor=#331A00;" parent="1" source="KTEhq3X3tkaiahgWx3Sp-46" target="KTEhq3X3tkaiahgWx3Sp-289" edge="1">
          <mxGeometry width="50" height="50" relative="1" as="geometry">
            <mxPoint x="600" y="630" as="sourcePoint" />
            <mxPoint x="670" y="320" as="targetPoint" />
          </mxGeometry>
        </mxCell>
        <mxCell id="KTEhq3X3tkaiahgWx3Sp-347" value="" style="endArrow=none;html=1;entryX=0;entryY=0.5;entryDx=0;entryDy=0;strokeColor=#331A00;" parent="1" target="KTEhq3X3tkaiahgWx3Sp-285" edge="1">
          <mxGeometry width="50" height="50" relative="1" as="geometry">
            <mxPoint x="590" y="620" as="sourcePoint" />
            <mxPoint x="667.5" y="422.5" as="targetPoint" />
          </mxGeometry>
        </mxCell>
        <mxCell id="KTEhq3X3tkaiahgWx3Sp-348" value="" style="endArrow=none;html=1;strokeColor=#000000;exitX=1;exitY=0.5;exitDx=0;exitDy=0;entryX=0;entryY=0.5;entryDx=0;entryDy=0;" parent="1" source="KTEhq3X3tkaiahgWx3Sp-274" target="KTEhq3X3tkaiahgWx3Sp-70" edge="1">
          <mxGeometry width="50" height="50" relative="1" as="geometry">
            <mxPoint x="990" y="260" as="sourcePoint" />
            <mxPoint x="1010" y="300" as="targetPoint" />
          </mxGeometry>
        </mxCell>
        <mxCell id="KTEhq3X3tkaiahgWx3Sp-349" value="" style="endArrow=none;html=1;strokeColor=#000000;exitX=1;exitY=0.5;exitDx=0;exitDy=0;" parent="1" source="KTEhq3X3tkaiahgWx3Sp-278" edge="1">
          <mxGeometry width="50" height="50" relative="1" as="geometry">
            <mxPoint x="952.5" y="270" as="sourcePoint" />
            <mxPoint x="1010" y="360" as="targetPoint" />
          </mxGeometry>
        </mxCell>
        <mxCell id="KTEhq3X3tkaiahgWx3Sp-350" value="" style="endArrow=none;html=1;strokeColor=#000000;exitX=1;exitY=0.5;exitDx=0;exitDy=0;entryX=0;entryY=0.5;entryDx=0;entryDy=0;" parent="1" source="KTEhq3X3tkaiahgWx3Sp-286" target="KTEhq3X3tkaiahgWx3Sp-70" edge="1">
          <mxGeometry width="50" height="50" relative="1" as="geometry">
            <mxPoint x="952.5" y="317.5" as="sourcePoint" />
            <mxPoint x="1020" y="370" as="targetPoint" />
          </mxGeometry>
        </mxCell>
        <mxCell id="KTEhq3X3tkaiahgWx3Sp-351" value="" style="endArrow=none;html=1;strokeColor=#000000;exitX=1;exitY=0.5;exitDx=0;exitDy=0;entryX=0;entryY=0.5;entryDx=0;entryDy=0;" parent="1" source="KTEhq3X3tkaiahgWx3Sp-282" target="KTEhq3X3tkaiahgWx3Sp-70" edge="1">
          <mxGeometry width="50" height="50" relative="1" as="geometry">
            <mxPoint x="952.5" y="422.5" as="sourcePoint" />
            <mxPoint x="1020" y="370" as="targetPoint" />
          </mxGeometry>
        </mxCell>
        <mxCell id="KTEhq3X3tkaiahgWx3Sp-290" value="" style="rounded=0;whiteSpace=wrap;html=1;gradientColor=none;fillColor=none;dashed=1;strokeWidth=2;strokeColor=#FF3333;" parent="1" vertex="1">
          <mxGeometry x="15" y="358" width="610" height="380" as="geometry" />
        </mxCell>
        <mxCell id="KTEhq3X3tkaiahgWx3Sp-353" value="" style="endArrow=none;html=1;entryX=0;entryY=0.5;entryDx=0;entryDy=0;strokeColor=#331A00;" parent="1" target="KTEhq3X3tkaiahgWx3Sp-260" edge="1">
          <mxGeometry width="50" height="50" relative="1" as="geometry">
            <mxPoint x="110" y="500" as="sourcePoint" />
            <mxPoint x="187.5000000000016" y="497.5" as="targetPoint" />
          </mxGeometry>
        </mxCell>
      </root>
    </mxGraphModel>
  </diagram>
</mxfile>
